<svg width="61" height="66" viewBox="0 0 61 66" fill="none" xmlns="http://www.w3.org/2000/svg">
<path d="M60.5 1H0.5V65H60.5V1Z" fill="none"/>
<g opacity="0.1">
<path opacity="0.1" d="M60.494 63.4844V64.9946H59.0781" stroke="#20263C" stroke-miterlimit="10"/>
<path opacity="0.1" d="M56.3612 64.9951H3.27539" stroke="#20263C" stroke-miterlimit="10" stroke-dasharray="5.77 5.77"/>
<path opacity="0.1" d="M1.91587 64.9946H0.5V63.4844" stroke="#20263C" stroke-miterlimit="10"/>
<path opacity="0.1" d="M0.5 60.5798V3.95996" stroke="#20263C" stroke-miterlimit="10" stroke-dasharray="5.77 5.77"/>
<path opacity="0.1" d="M0.5 2.51027V1H1.91587" stroke="#20263C" stroke-miterlimit="10"/>
<path opacity="0.1" d="M4.63867 1H57.7198" stroke="#20263C" stroke-miterlimit="10" stroke-dasharray="5.77 5.77"/>
<path opacity="0.1" d="M59.0781 1H60.494V2.51027" stroke="#20263C" stroke-miterlimit="10"/>
<path opacity="0.1" d="M60.4941 5.41016V62.035" stroke="#20263C" stroke-miterlimit="10" stroke-dasharray="5.77 5.77"/>
</g>
<path d="M23.1544 29.323L17.2589 25.667L11.3555 29.323V36.6185L17.2589 40.2662L23.1544 36.6185V29.323ZM21.8849 35.8338L17.2589 38.6886L12.6327 35.8338V30.1077L17.2589 27.2446L21.8849 30.1077V35.8338Z" fill="#17B26A"/>
<path d="M35.8973 29.3147L30.2301 25.667L24.5703 29.3147V36.6102L30.2301 40.2662L35.8973 36.6102V29.3147Z" fill="#17B26A"/>
<path d="M43.2081 25.667L37.3125 29.323V36.6185L43.2081 40.2662L49.1114 36.6185V29.323L43.2081 25.667ZM47.8343 35.8338L43.2081 38.6886L38.582 35.8338V30.1077L43.2081 27.2446L47.8343 30.1077V35.8338Z" fill="#17B26A"/>
<path d="M17.9609 41.406V48.7015L23.8721 52.3492L29.7599 48.7015V41.406L23.8721 37.75L17.9609 41.406ZM28.4687 47.9419L23.8721 50.7716L19.2054 47.9419V42.1907L23.8721 39.3276L28.4843 42.1907L28.4687 47.9419Z" fill="#17B26A"/>
<path d="M30.7051 41.406V48.7015L36.6006 52.3492L42.504 48.7015V41.406L36.6006 37.75L30.7051 41.406ZM41.2268 47.9419L36.6006 50.7967L31.9823 47.9419V42.1907L36.6006 39.3276L41.2268 42.1907V47.9419Z" fill="#17B26A"/>
<path d="M29.7599 24.5364V17.216L23.8799 13.585L17.9609 17.216V24.5114L23.8799 28.1842L29.7599 24.5364ZM19.207 18.0507L23.8799 15.1626L28.4827 18.0507V23.7769L23.8799 26.6066L19.207 23.7518V18.0507Z" fill="#17B26A"/>
<path d="M42.504 24.5615V17.241L36.6006 13.585L30.7051 17.241V24.5364L36.6006 28.1842L42.504 24.5615ZM31.9823 18.0757L36.6006 15.2127L41.2268 18.0757V23.8019L36.6006 26.6567L31.9823 23.8019V18.0757Z" fill="#17B26A"/>
</svg>
