<svg width="262" height="110" viewBox="0 0 262 110" fill="none" xmlns="http://www.w3.org/2000/svg">
<path opacity="0.0144928" d="M382.615 159.626C384.731 159.475 386.492 157.943 386.932 155.868L400.938 89.9691C401.199 88.7422 400.965 87.4621 400.287 86.4069L348.147 5.27679C347.614 4.44699 346.836 3.8034 345.921 3.43503L267.568 -28.1071C265.909 -28.775 264.016 -28.4563 262.667 -27.2821L218.352 11.2905C217.003 12.4647 216.426 14.2961 216.859 16.0314L237.294 97.9852C237.533 98.9422 238.063 99.8015 238.812 100.444L311.976 163.273C312.928 164.09 314.164 164.499 315.415 164.41L382.615 159.626Z" stroke="url(#paint0_linear_1642_24593)" stroke-opacity="0.3" stroke-width="0.827633"/>
<path opacity="0.0289855" d="M373.478 164.978C375.593 164.935 377.426 163.502 377.976 161.459L395.39 96.8782C395.717 95.6654 395.551 94.3725 394.929 93.2814L347.586 10.2806C347.096 9.42123 346.35 8.73598 345.452 8.32021L269.47 -26.8702C267.849 -27.6209 265.944 -27.4007 264.538 -26.3002L218.54 9.68488C217.133 10.7855 216.461 12.5811 216.799 14.3349L232.668 96.5534C232.856 97.5249 233.341 98.4137 234.057 99.0963L303.224 165.024C304.133 165.891 305.348 166.363 306.604 166.337L373.478 164.978Z" stroke="url(#paint1_linear_1642_24593)" stroke-opacity="0.3" stroke-width="0.827633"/>
<path opacity="0.0434783" d="M364.241 170.016C366.35 170.08 368.249 168.749 368.907 166.745L389.63 103.656C390.022 102.461 389.926 101.159 389.361 100.034L346.866 15.4408C346.421 14.554 345.709 13.8287 344.831 13.3663L271.384 -25.312C269.806 -26.1432 267.895 -26.0219 266.435 -24.9978L218.903 8.33C217.442 9.35409 216.677 11.109 216.92 12.8761L228.251 95.1079C228.387 96.091 228.826 97.0071 229.508 97.7282L294.554 166.509C295.419 167.423 296.61 167.958 297.867 167.996L364.241 170.016Z" stroke="url(#paint2_linear_1642_24593)" stroke-opacity="0.3" stroke-width="0.827633"/>
<path opacity="0.057971" d="M354.923 174.736C357.02 174.907 358.98 173.68 359.743 171.72L383.666 110.291C384.123 109.117 384.096 107.81 383.59 106.656L345.98 20.7472C345.58 19.8353 344.905 19.0716 344.049 18.5635L273.293 -23.4351C271.761 -24.3444 269.85 -24.3219 268.34 -23.377L219.425 7.23232C217.914 8.1773 217.059 9.88656 217.207 11.6618L224.042 93.6592C224.125 94.6512 224.517 95.5923 225.162 96.3501L285.981 167.736C286.798 168.695 287.962 169.291 289.217 169.393L354.923 174.736Z" stroke="url(#paint3_linear_1642_24593)" stroke-opacity="0.3" stroke-width="0.827633"/>
<path opacity="0.0724638" d="M345.539 179.137C347.619 179.413 349.634 178.294 350.5 176.383L377.505 116.775C378.026 115.626 378.069 114.317 377.625 113.136L344.918 26.1896C344.566 25.2549 343.929 24.4546 343.098 23.9018L275.177 -21.2427C273.696 -22.2275 271.789 -22.3036 270.233 -21.4401L220.088 6.39775C218.533 7.26122 217.589 8.92013 217.641 10.6984L220.038 92.2181C220.068 93.2163 220.41 94.1799 221.018 94.9725L277.515 168.711C278.282 169.713 279.416 170.369 280.667 170.535L345.539 179.137Z" stroke="url(#paint4_linear_1642_24593)" stroke-opacity="0.3" stroke-width="0.827633"/>
<path opacity="0.0869565" d="M336.111 183.218C338.168 183.597 340.232 182.589 341.197 180.733L371.161 123.098C371.744 121.977 371.857 120.67 371.475 119.465L343.677 31.7577C343.374 30.8027 342.778 29.9677 341.973 29.3714L277.022 -18.7389C275.594 -19.7963 273.697 -19.9705 272.1 -19.1907L220.881 5.83149C219.284 6.61129 218.256 8.21528 218.212 9.99126L216.24 90.7955C216.215 91.797 216.507 92.7806 217.075 93.6063L269.172 169.443C269.888 170.485 270.988 171.199 272.231 171.428L336.111 183.218Z" stroke="url(#paint5_linear_1642_24593)" stroke-opacity="0.3" stroke-width="0.827633"/>
<path opacity="0.101449" d="M326.653 186.979C328.683 187.461 330.789 186.565 331.85 184.769L364.641 129.253C365.284 128.163 365.467 126.862 365.149 125.637L342.249 37.4408C341.996 36.468 341.442 35.6002 340.666 34.9617L278.807 -15.9287C277.437 -17.0558 275.554 -17.3273 273.922 -16.6331L221.784 5.53777C220.151 6.23198 219.04 7.77665 218.902 9.54523L212.641 89.402C212.563 90.4039 212.803 91.405 213.329 92.2617L260.963 169.94C261.625 171.019 262.689 171.79 263.921 172.083L326.653 186.979Z" stroke="url(#paint6_linear_1642_24593)" stroke-opacity="0.3" stroke-width="0.827633"/>
<path opacity="0.115942" d="M317.184 190.424C319.181 191.006 321.324 190.224 322.477 188.494L357.955 135.232C358.658 134.177 358.911 132.885 358.657 131.643L340.629 43.2285C340.427 42.2405 339.917 41.3421 339.172 40.6627L280.518 -12.8177C279.209 -14.0113 277.345 -14.3789 275.681 -13.772L222.781 5.52035C221.117 6.1273 219.928 7.6084 219.694 9.36443L209.24 88.0485C209.107 89.048 209.296 90.0639 209.777 90.9495L252.9 170.212C253.506 171.326 254.531 172.152 255.748 172.507L317.184 190.424Z" stroke="url(#paint7_linear_1642_24593)" stroke-opacity="0.3" stroke-width="0.827633"/>
<path opacity="0.130435" d="M307.723 193.553C309.682 194.233 311.856 193.567 313.097 191.906L351.116 141.027C351.876 140.01 352.198 138.731 352.01 137.476L338.813 49.1087C338.664 48.1082 338.199 47.1813 337.487 46.4626L282.138 -9.41353C280.893 -10.6702 279.054 -11.1328 277.363 -10.6145L223.859 5.78078C222.168 6.29903 220.903 7.71257 220.576 9.45093L206.034 86.7442C205.847 87.7384 205.982 88.7663 206.419 89.6788L244.995 170.269C245.543 171.414 246.527 172.293 247.726 172.709L307.723 193.553Z" stroke="url(#paint8_linear_1642_24593)" stroke-opacity="0.3" stroke-width="0.827633"/>
<path opacity="0.144928" d="M298.286 196.37C300.203 197.147 302.401 196.597 303.726 195.011L344.135 146.633C344.95 145.657 345.341 144.395 345.22 143.129L336.799 55.0707C336.702 54.0602 336.285 53.1071 335.608 52.3507L283.652 -5.7236C282.474 -7.03992 280.665 -7.59574 278.951 -7.16736L225 6.32085C223.287 6.74924 221.952 8.09136 221.532 9.80702L203.019 85.4993C202.778 86.4852 202.858 87.5225 203.249 88.4596L237.259 170.12C237.748 171.294 238.686 172.223 239.865 172.701L298.286 196.37Z" stroke="url(#paint9_linear_1642_24593)" stroke-opacity="0.3" stroke-width="0.827633"/>
<path opacity="0.15942" d="M288.892 198.881C290.761 199.75 292.977 199.318 294.382 197.81L337.023 152.042C337.892 151.11 338.35 149.869 338.296 148.597L334.583 61.1027C334.54 60.0851 334.171 59.1082 333.531 58.3156L285.046 -1.75648C283.939 -3.1288 282.163 -3.77607 280.432 -3.43846L226.191 7.14108C224.46 7.47869 223.058 8.74582 222.547 10.4338L200.191 84.3233C199.896 85.2982 199.921 86.342 200.264 87.3012L229.702 169.777C230.131 170.977 231.022 171.955 232.177 172.492L288.892 198.881Z" stroke="url(#paint10_linear_1642_24593)" stroke-opacity="0.3" stroke-width="0.827633"/>
<path opacity="0.173913" d="M279.555 201.09C281.372 202.049 283.599 201.735 285.079 200.31L329.792 157.252C330.711 156.367 331.236 155.15 331.249 153.874L332.161 67.1939C332.172 66.1719 331.853 65.1736 331.252 64.3467L286.304 2.47903C285.269 1.05449 283.532 0.317856 281.789 0.564031L227.413 8.24169C225.669 8.48786 224.204 9.67661 223.604 11.332L197.542 83.2259C197.194 84.1868 197.164 85.2343 197.458 86.2134L222.333 169.253C222.699 170.475 223.541 171.499 224.669 172.095L279.555 201.09Z" stroke="url(#paint11_linear_1642_24593)" stroke-opacity="0.3" stroke-width="0.827633"/>
<path opacity="0.188406" d="M270.291 203.003C272.052 204.049 274.284 203.853 275.834 202.514L322.452 162.257C323.419 161.421 324.01 160.232 324.091 158.957L329.532 73.3318C329.597 72.3082 329.33 71.291 328.77 70.4316L287.413 6.97212C286.453 5.4993 284.759 4.67561 283.008 4.82995L228.651 9.62075C226.9 9.77509 225.376 10.8823 224.689 12.5003L195.069 82.2155C194.668 83.1595 194.583 84.2078 194.826 85.2042L215.16 168.557C215.463 169.799 216.252 170.867 217.351 171.52L270.291 203.003Z" stroke="url(#paint12_linear_1642_24593)" stroke-opacity="0.3" stroke-width="0.827633"/>
<path opacity="0.202899" d="M261.119 204.627C262.819 205.758 265.05 205.679 266.665 204.43L315.018 167.053C316.031 166.27 316.686 165.112 316.834 163.841L326.697 79.5054C326.817 78.4831 326.602 77.4495 326.084 76.5597L288.361 11.7127C287.478 10.1956 285.832 9.28738 284.078 9.34976L229.892 11.2768C228.138 11.3392 226.561 12.362 225.788 13.938L192.767 81.301C192.314 82.2253 192.172 83.2715 192.364 84.2828L208.193 167.704C208.432 168.962 209.167 170.071 210.233 170.78L261.119 204.627Z" stroke="url(#paint13_linear_1642_24593)" stroke-opacity="0.3" stroke-width="0.827633"/>
<path opacity="0.217391" d="M252.05 205.972C253.685 207.183 255.909 207.22 257.584 206.065L307.5 171.638C308.555 170.91 309.272 169.787 309.489 168.523L323.653 85.7031C323.827 84.6848 323.665 83.6375 323.191 82.7193L289.133 16.6893C288.33 15.1319 286.736 14.142 284.984 14.1126L231.118 13.207C229.366 13.1775 227.74 14.1133 226.885 15.6427L190.626 80.4905C190.122 81.3922 189.925 82.4335 190.065 83.4571L201.437 166.706C201.61 167.977 202.289 169.123 203.32 169.886L252.05 205.972Z" stroke="url(#paint14_linear_1642_24593)" stroke-opacity="0.3" stroke-width="0.827633"/>
<path opacity="0.231884" d="M243.101 207.044C244.668 208.331 246.878 208.484 248.607 207.425L299.91 176.009C301.006 175.338 301.783 174.253 302.067 173L320.401 91.9127C320.63 90.9013 320.522 89.8429 320.094 88.8985L289.721 21.8894C288.998 20.2961 287.46 19.2275 285.715 19.1066L232.317 15.407C230.572 15.2861 228.901 16.1324 227.966 17.611L188.643 79.7914C188.088 80.6677 187.835 81.7011 187.923 82.7344L194.9 165.575C195.008 166.855 195.628 168.037 196.621 168.853L243.101 207.044Z" stroke="url(#paint15_linear_1642_24593)" stroke-opacity="0.3" stroke-width="0.827633"/>
<path opacity="0.246377" d="M234.283 207.854C235.778 209.214 237.968 209.482 239.747 208.522L292.259 180.165C293.392 179.553 294.228 178.509 294.578 177.271L316.94 98.1237C317.223 97.1221 317.17 96.0554 316.789 95.0869L290.109 27.3014C289.47 25.6764 287.992 24.5323 286.258 24.3205L233.471 17.8735C231.738 17.6618 230.027 18.4165 229.016 19.8399L186.806 79.2118C186.203 80.06 185.895 81.0826 185.928 82.1229L188.585 164.326C188.626 165.612 189.187 166.826 190.138 167.692L234.283 207.854Z" stroke="url(#paint16_linear_1642_24593)" stroke-opacity="0.3" stroke-width="0.827633"/>
<path opacity="0.26087" d="M225.613 208.412C227.033 209.84 229.198 210.22 231.019 209.361L284.563 184.104C285.729 183.554 286.622 182.554 287.038 181.334L313.275 104.324C313.612 103.335 313.615 102.262 313.282 101.272L290.294 32.9112C289.738 31.2588 288.324 30.0425 286.607 29.7409L234.571 20.6C232.854 20.2984 231.109 20.9597 230.024 22.3238L185.114 78.7575C184.464 79.575 184.1 80.5838 184.08 81.6284L182.501 162.971C182.476 164.26 182.974 165.503 183.883 166.418L225.613 208.412Z" stroke="url(#paint17_linear_1642_24593)" stroke-opacity="0.3" stroke-width="0.827633"/>
<path opacity="0.275362" d="M217.101 208.727C218.442 210.22 220.575 210.711 222.434 209.955L276.83 187.826C278.026 187.339 278.973 186.388 279.454 185.189L309.405 110.502C309.796 109.528 309.854 108.453 309.57 107.443L290.261 38.7058C289.79 37.0305 288.443 35.7456 286.747 35.3552L235.598 23.5812C233.902 23.1908 232.129 23.7572 230.973 25.0582L183.554 78.4356C182.858 79.2197 182.44 80.2119 182.365 81.2581L176.648 161.524C176.556 162.812 176.991 164.082 177.854 165.042L217.101 208.727Z" stroke="url(#paint18_linear_1642_24593)" stroke-opacity="0.3" stroke-width="0.827633"/>
<path opacity="0.289855" d="M208.759 208.813C210.019 210.366 212.115 210.965 214.006 210.314L269.074 191.332C270.297 190.911 271.296 190.01 271.841 188.836L305.335 116.648C305.778 115.692 305.892 114.617 305.659 113.591L290.005 44.6718C289.62 42.9779 288.343 41.6282 286.673 41.1505L236.543 26.8109C234.873 26.3331 233.076 26.8033 231.853 28.0375L182.121 78.2525C181.38 79.0007 180.908 79.9734 180.779 81.0184L171.031 160C170.873 161.284 171.244 162.577 172.059 163.581L208.759 208.813Z" stroke="url(#paint19_linear_1642_24593)" stroke-opacity="0.3" stroke-width="0.827633"/>
<path opacity="0.304348" d="M200.599 208.681C201.775 210.289 203.828 210.994 205.744 210.448L261.306 194.623C262.552 194.268 263.6 193.42 264.207 192.275L301.065 122.749C301.561 121.815 301.731 120.743 301.549 119.702L289.516 50.7941C289.218 49.0861 288.014 47.6755 286.375 47.1121L237.391 30.281C235.752 29.7175 233.935 30.0905 232.65 31.2544L180.805 78.213C180.021 78.9227 179.496 79.873 179.313 80.9141L165.653 158.411C165.428 159.688 165.733 161 166.498 162.046L200.599 208.681Z" stroke="url(#paint20_linear_1642_24593)" stroke-opacity="0.3" stroke-width="0.827633"/>
<path opacity="0.318841" d="M192.63 208.342C193.719 210.001 195.724 210.809 197.66 210.371L253.537 197.7C254.803 197.413 255.897 196.621 256.565 195.508L296.602 128.797C297.148 127.887 297.375 126.821 297.245 125.767L288.79 57.0586C288.578 55.341 287.451 53.8736 285.846 53.2263L238.132 33.984C236.527 33.3367 234.697 33.6117 233.353 34.7021L179.598 78.3225C178.774 78.9913 178.197 79.9164 177.959 80.9508L160.515 156.773C160.224 158.038 160.462 159.367 161.175 160.453L192.63 208.342Z" stroke="url(#paint21_linear_1642_24593)" stroke-opacity="0.3" stroke-width="0.827633"/>
<path opacity="0.333333" d="M184.863 207.811C185.864 209.515 187.815 210.424 189.765 210.092L245.781 200.566C247.063 200.348 248.2 199.615 248.928 198.537L291.95 134.781C292.546 133.897 292.828 132.839 292.752 131.776L287.82 63.4502C287.696 61.7275 286.648 60.2074 285.082 59.4785L238.753 37.9111C237.187 37.1821 235.349 37.3588 233.951 38.3727L178.492 78.5852C177.629 79.2109 177.001 80.108 176.709 81.133L155.618 155.099C155.262 156.349 155.432 157.692 156.091 158.813L184.863 207.811Z" stroke="url(#paint22_linear_1642_24593)" stroke-opacity="0.3" stroke-width="0.827633"/>
<path opacity="0.347826" d="M177.304 207.099C178.215 208.846 180.108 209.85 182.065 209.627L238.045 203.223C239.34 203.075 240.517 202.403 241.302 201.363L287.111 140.69C287.756 139.835 288.094 138.789 288.071 137.719L286.601 69.9542C286.563 68.2309 285.597 66.6624 284.074 65.8542L239.242 42.0534C237.72 41.2452 235.879 41.3234 234.431 42.2579L177.476 79.0055C176.577 79.5858 175.899 80.4522 175.553 81.4649L150.961 153.402C150.54 154.635 150.642 155.987 151.245 157.142L177.304 207.099Z" stroke="url(#paint23_linear_1642_24593)" stroke-opacity="0.3" stroke-width="0.827633"/>
<path opacity="0.362319" d="M169.965 206.222C170.784 208.005 172.613 209.102 174.571 208.986L230.344 205.675C231.647 205.598 232.861 204.989 233.702 203.99L282.095 146.514C282.787 145.692 283.18 144.66 283.211 143.586L285.13 76.5551C285.179 74.8356 284.296 73.2233 282.821 72.3382L239.592 46.4012C238.117 45.5162 236.279 45.4961 234.785 46.3488L176.544 79.5867C175.61 80.1194 174.885 80.9525 174.485 81.9502L146.546 151.697C146.06 152.909 146.094 154.267 146.639 155.454L169.965 206.222Z" stroke="url(#paint24_linear_1642_24593)" stroke-opacity="0.3" stroke-width="0.827633"/>
<path opacity="0.376812" d="M162.847 205.193C163.573 207.007 165.334 208.194 167.288 208.184L222.684 207.926C223.992 207.92 225.24 207.376 226.134 206.422L276.902 152.246C277.64 151.459 278.088 150.443 278.174 149.367L283.401 83.2381C283.537 81.5267 282.74 79.8751 281.316 78.9161L239.789 50.9447C238.365 49.9856 236.535 49.8678 235 50.6363L175.683 80.332C174.717 80.8153 173.945 81.6123 173.493 82.5923L142.367 149.998C141.818 151.186 141.783 152.546 142.269 153.761L162.847 205.193Z" stroke="url(#paint25_linear_1642_24593)" stroke-opacity="0.3" stroke-width="0.827633"/>
<path opacity="0.391304" d="M160.224 207.235L215.079 209.981C216.388 210.046 217.666 209.569 218.611 208.662L271.543 157.876C272.325 157.125 272.828 156.13 272.968 155.055L281.416 89.9876C281.637 88.2888 280.927 86.6025 279.558 85.5724L239.828 55.673C238.459 54.6429 236.642 54.4281 235.071 55.1104L174.886 81.2438C173.892 81.6756 173.075 82.4341 172.57 83.3937L138.425 148.318C137.815 149.478 137.71 150.838 138.135 152.077L155.961 204.027C156.593 205.867 158.281 207.138 160.224 207.235Z" stroke="url(#paint26_linear_1642_24593)" stroke-opacity="0.3" stroke-width="0.827633"/>
<path opacity="0.405797" d="M149.312 202.737C149.848 204.599 151.46 205.95 153.387 206.152L207.539 211.844C208.845 211.981 210.149 211.572 211.144 210.715L266.025 163.394C266.85 162.683 267.406 161.711 267.6 160.639L279.174 96.7881C279.478 95.1061 278.858 93.3898 277.548 92.2919L239.7 60.5751C238.39 59.4772 236.591 59.1663 234.988 59.7607L174.146 82.3238C173.125 82.7025 172.265 83.4199 171.709 84.3564L134.717 146.669C134.047 147.798 133.873 149.154 134.237 150.416L149.312 202.737Z" stroke="url(#paint27_linear_1642_24593)" stroke-opacity="0.3" stroke-width="0.827633"/>
<path opacity="0.42029" d="M142.902 201.338C143.343 203.217 144.874 204.643 146.779 204.949L200.071 213.52C201.37 213.729 202.698 213.391 203.739 212.586L260.354 168.794C261.219 168.125 261.827 167.178 262.076 166.112L276.671 103.624C277.059 101.964 276.528 100.222 275.28 99.0596L239.396 65.6398C238.147 64.4774 236.373 64.0718 234.743 64.5768L173.45 83.5735C172.405 83.8974 171.504 84.5715 170.898 85.4822L131.238 145.065C130.509 146.16 130.266 147.509 130.567 148.79L142.902 201.338Z" stroke="url(#paint28_linear_1642_24593)" stroke-opacity="0.3" stroke-width="0.827633"/>
<path opacity="0.434783" d="M136.733 199.846C137.078 201.735 138.526 203.232 140.403 203.641L192.684 215.016C193.973 215.297 195.319 215.03 196.403 214.28L254.535 174.067C255.439 173.442 256.098 172.523 256.402 171.467L273.908 110.481C274.377 108.846 273.938 107.084 272.755 105.86L238.907 70.8552C237.724 69.6318 235.978 69.1332 234.328 69.5475L172.788 84.9938C171.722 85.2614 170.782 85.8897 170.126 86.7722L127.982 143.519C127.196 144.577 126.885 145.914 127.121 147.211L136.733 199.846Z" stroke="url(#paint29_linear_1642_24593)" stroke-opacity="0.3" stroke-width="0.827633"/>
<path opacity="0.449275" d="M130.812 198.274C131.061 200.17 132.421 201.733 134.265 202.241L185.39 216.339C186.664 216.69 188.026 216.496 189.151 215.804L248.58 179.208C249.521 178.629 250.23 177.74 250.588 176.696L270.889 117.345C271.439 115.738 271.091 113.961 269.976 112.68L238.232 76.2102C237.118 74.9295 235.405 74.3397 233.738 74.6625L172.155 86.5857C171.07 86.7956 170.093 87.376 169.39 88.2275L124.948 142.043C124.107 143.061 123.727 144.384 123.899 145.693L130.812 198.274Z" stroke="url(#paint30_linear_1642_24593)" stroke-opacity="0.3" stroke-width="0.827633"/>
<path opacity="0.463768" d="M125.139 196.638C125.293 198.536 126.563 200.159 128.368 200.765L178.196 217.495C179.451 217.917 180.825 217.796 181.987 217.163L242.497 184.208C243.472 183.677 244.23 182.822 244.641 181.792L267.617 124.199C268.244 122.626 267.989 120.837 266.945 119.503L237.364 81.692C236.321 80.3579 234.647 79.6792 232.969 79.9097L171.539 88.3485C170.44 88.4995 169.428 89.03 168.678 89.8481L122.128 140.648C121.233 141.624 120.786 142.928 120.893 144.248L125.139 196.638Z" stroke="url(#paint31_linear_1642_24593)" stroke-opacity="0.3" stroke-width="0.827633"/>
<path opacity="0.478261" d="M119.711 194.952C119.77 196.847 120.947 198.525 122.708 199.226L171.106 218.492C172.338 218.982 173.719 218.936 174.916 218.365L236.291 189.061C237.297 188.581 238.103 187.762 238.567 186.748L264.089 131.029C264.793 129.493 264.629 127.699 263.659 126.316L236.295 87.2885C235.325 85.905 233.694 85.1396 232.01 85.2776L170.928 90.2818C169.817 90.3728 168.773 90.8512 167.978 91.6335L119.512 139.347C118.567 140.277 118.053 141.56 118.094 142.886L119.711 194.952Z" stroke="url(#paint32_linear_1642_24593)" stroke-opacity="0.3" stroke-width="0.827633"/>
<path opacity="0.492754" d="M114.534 193.232C114.498 195.118 115.58 196.847 117.291 197.64L164.132 219.337C165.338 219.895 166.723 219.924 167.951 219.416L229.975 193.764C231.011 193.335 231.862 192.555 232.379 191.561L260.316 137.823C261.093 136.328 261.022 134.532 260.128 133.104L235.025 92.9879C234.131 91.559 232.547 90.7098 230.863 90.7551L170.318 92.3851C169.198 92.4153 168.125 92.8398 167.287 93.5838L117.098 138.15C116.104 139.033 115.524 140.291 115.5 141.62L114.534 193.232Z" stroke="url(#paint33_linear_1642_24593)" stroke-opacity="0.3" stroke-width="0.827633"/>
<path opacity="0.507246" d="M109.603 191.491C109.474 193.364 110.459 195.137 112.116 196.018L157.279 220.037C158.455 220.662 159.839 220.766 161.095 220.323L223.557 198.309C224.62 197.934 225.515 197.195 226.083 196.223L256.299 144.565C257.148 143.113 257.168 141.322 256.352 139.852L233.549 98.7765C232.733 97.3066 231.202 96.3763 229.521 96.3293L169.698 94.6557C168.573 94.6243 167.472 94.9931 166.593 95.6966L114.876 137.068C113.836 137.9 113.192 139.13 113.101 140.459L109.603 191.491Z" stroke="url(#paint34_linear_1642_24593)" stroke-opacity="0.3" stroke-width="0.827633"/>
<path opacity="0.521739" d="M104.918 189.744C104.698 191.599 105.583 193.411 107.182 194.377L150.553 220.602C151.695 221.292 153.075 221.471 154.356 221.095L217.047 202.693C218.133 202.374 219.07 201.678 219.69 200.73L252.045 151.242C252.963 149.838 253.074 148.055 252.338 146.549L231.866 104.643C231.13 103.136 229.655 102.128 227.984 101.989L169.06 97.0926C167.932 96.9989 166.807 97.3104 165.888 97.9712L112.839 136.111C111.755 136.89 111.048 138.089 110.891 139.414L104.918 189.744Z" stroke="url(#paint35_linear_1642_24593)" stroke-opacity="0.3" stroke-width="0.827633"/>
<path opacity="0.536232" d="M100.477 188.005C100.166 189.837 100.951 191.683 102.486 192.73L143.961 221.039C145.066 221.793 146.437 222.047 147.739 221.739L210.454 206.911C211.562 206.649 212.539 205.999 213.208 205.079L247.56 157.841C248.544 156.488 248.745 154.719 248.091 153.18L229.973 110.574C229.319 109.035 227.904 107.952 226.248 107.722L168.395 99.6928C167.267 99.5364 166.121 99.7891 165.164 100.405L110.977 135.288C109.852 136.012 109.084 137.176 108.861 138.495L100.477 188.005Z" stroke="url(#paint36_linear_1642_24593)" stroke-opacity="0.3" stroke-width="0.827633"/>
<path opacity="0.550725" d="M96.2736 186.287C95.875 188.093 96.558 189.965 98.0253 191.09L137.507 221.357C138.571 222.172 139.929 222.501 141.248 222.263L203.787 210.961C204.913 210.757 205.928 210.155 206.646 209.264L242.849 164.349C243.896 163.051 244.186 161.299 243.615 159.732L227.869 116.556C227.297 114.99 225.948 113.836 224.311 113.516L167.692 102.453C166.569 102.234 165.405 102.426 164.412 102.995L109.281 134.608C108.118 135.275 107.29 136.401 107.001 137.71L96.2736 186.287Z" stroke="url(#paint37_linear_1642_24593)" stroke-opacity="0.3" stroke-width="0.827633"/>
<path opacity="0.565217" d="M92.3062 184.605C91.8212 186.379 92.4018 188.274 93.7974 189.471L131.195 221.565C132.215 222.44 133.556 222.843 134.889 222.675L197.057 214.84C198.198 214.696 199.249 214.143 200.014 213.285L237.922 170.756C239.028 169.514 239.407 167.785 238.919 166.195L225.554 122.58C225.067 120.989 223.785 119.769 222.173 119.361L166.946 105.371C165.831 105.089 164.651 105.22 163.625 105.74L107.741 134.08C106.543 134.687 105.657 135.773 105.303 137.069L92.3062 184.605Z" stroke="url(#paint38_linear_1642_24593)" stroke-opacity="0.3" stroke-width="0.827633"/>
<path opacity="0.57971" d="M88.5695 182.97C88.0004 184.709 88.4781 186.62 89.7984 187.886L125.031 221.672C126.003 222.604 127.324 223.081 128.667 222.984L190.273 218.544C191.427 218.461 192.511 217.96 193.322 217.136L232.786 177.048C233.949 175.866 234.413 174.164 234.011 172.555L223.029 128.63C222.627 127.021 221.416 125.738 219.834 125.242L166.148 108.443C165.044 108.097 163.852 108.166 162.795 108.635L106.347 133.71C105.117 134.256 104.175 135.299 103.756 136.578L88.5695 182.97Z" stroke="url(#paint39_linear_1642_24593)" stroke-opacity="0.3" stroke-width="0.827633"/>
<path opacity="0.594203" d="M85.0585 181.397C84.4078 183.096 84.7825 185.017 86.024 186.347L119.018 221.688C119.939 222.674 121.235 223.223 122.585 223.198L183.447 222.074C184.61 222.052 185.725 221.605 186.581 220.818L227.45 183.216C228.667 182.096 229.216 180.425 228.899 178.803L220.296 134.696C219.98 133.073 218.844 131.731 217.295 131.15L165.291 111.663C164.201 111.255 163 111.26 161.914 111.677L105.09 133.507C103.831 133.991 102.836 134.987 102.353 136.247L85.0585 181.397Z" stroke="url(#paint40_linear_1642_24593)" stroke-opacity="0.3" stroke-width="0.827633"/>
<path opacity="0.608696" d="M81.7644 179.896C81.0347 181.552 81.3066 183.478 82.4661 184.866L113.157 221.621C114.024 222.66 115.292 223.28 116.643 223.327L176.586 225.427C177.755 225.468 178.898 225.077 179.797 224.328L221.923 189.249C223.189 188.194 223.82 186.559 223.59 184.926L217.354 140.765C217.124 139.133 216.065 137.737 214.556 137.074L164.365 115.029C163.294 114.559 162.087 114.499 160.974 114.862L103.957 133.476C102.671 133.896 101.625 134.843 101.079 136.081L81.7644 179.896Z" stroke="url(#paint41_linear_1642_24593)" stroke-opacity="0.3" stroke-width="0.827633"/>
<defs>
<linearGradient id="paint0_linear_1642_24593" x1="386.528" y1="159.762" x2="226.845" y2="-23.6945" gradientUnits="userSpaceOnUse">
<stop stop-color="#17B26A"/>
<stop offset="1" stop-color="#75E4B0"/>
</linearGradient>
<linearGradient id="paint1_linear_1642_24593" x1="377.366" y1="165.313" x2="228.825" y2="-24.5582" gradientUnits="userSpaceOnUse">
<stop stop-color="#17B26A"/>
<stop offset="1" stop-color="#75E4B0"/>
</linearGradient>
<linearGradient id="paint2_linear_1642_24593" x1="368.094" y1="170.547" x2="230.927" y2="-25.0801" gradientUnits="userSpaceOnUse">
<stop stop-color="#17B26A"/>
<stop offset="1" stop-color="#75E4B0"/>
</linearGradient>
<linearGradient id="paint3_linear_1642_24593" x1="358.73" y1="175.461" x2="233.128" y2="-25.2575" gradientUnits="userSpaceOnUse">
<stop stop-color="#17B26A"/>
<stop offset="1" stop-color="#75E4B0"/>
</linearGradient>
<linearGradient id="paint4_linear_1642_24593" x1="349.292" y1="180.052" x2="235.408" y2="-25.0882" gradientUnits="userSpaceOnUse">
<stop stop-color="#17B26A"/>
<stop offset="1" stop-color="#75E4B0"/>
</linearGradient>
<linearGradient id="paint5_linear_1642_24593" x1="339.799" y1="184.319" x2="237.75" y2="-24.5712" gradientUnits="userSpaceOnUse">
<stop stop-color="#17B26A"/>
<stop offset="1" stop-color="#75E4B0"/>
</linearGradient>
<linearGradient id="paint6_linear_1642_24593" x1="330.267" y1="188.263" x2="240.131" y2="-23.7064" gradientUnits="userSpaceOnUse">
<stop stop-color="#17B26A"/>
<stop offset="1" stop-color="#75E4B0"/>
</linearGradient>
<linearGradient id="paint7_linear_1642_24593" x1="320.716" y1="191.885" x2="242.532" y2="-22.4947" gradientUnits="userSpaceOnUse">
<stop stop-color="#17B26A"/>
<stop offset="1" stop-color="#75E4B0"/>
</linearGradient>
<linearGradient id="paint8_linear_1642_24593" x1="311.163" y1="195.186" x2="244.935" y2="-20.939" gradientUnits="userSpaceOnUse">
<stop stop-color="#17B26A"/>
<stop offset="1" stop-color="#75E4B0"/>
</linearGradient>
<linearGradient id="paint9_linear_1642_24593" x1="301.626" y1="198.17" x2="247.321" y2="-19.0424" gradientUnits="userSpaceOnUse">
<stop stop-color="#17B26A"/>
<stop offset="1" stop-color="#75E4B0"/>
</linearGradient>
<linearGradient id="paint10_linear_1642_24593" x1="292.124" y1="200.841" x2="249.672" y2="-16.8092" gradientUnits="userSpaceOnUse">
<stop stop-color="#17B26A"/>
<stop offset="1" stop-color="#75E4B0"/>
</linearGradient>
<linearGradient id="paint11_linear_1642_24593" x1="282.67" y1="203.203" x2="251.968" y2="-14.2443" gradientUnits="userSpaceOnUse">
<stop stop-color="#17B26A"/>
<stop offset="1" stop-color="#75E4B0"/>
</linearGradient>
<linearGradient id="paint12_linear_1642_24593" x1="273.284" y1="205.263" x2="254.192" y2="-11.3547" gradientUnits="userSpaceOnUse">
<stop stop-color="#17B26A"/>
<stop offset="1" stop-color="#75E4B0"/>
</linearGradient>
<linearGradient id="paint13_linear_1642_24593" x1="263.981" y1="207.028" x2="256.329" y2="-8.1471" gradientUnits="userSpaceOnUse">
<stop stop-color="#17B26A"/>
<stop offset="1" stop-color="#75E4B0"/>
</linearGradient>
<linearGradient id="paint14_linear_1642_24593" x1="254.775" y1="208.505" x2="258.359" y2="-4.62964" gradientUnits="userSpaceOnUse">
<stop stop-color="#17B26A"/>
<stop offset="1" stop-color="#75E4B0"/>
</linearGradient>
<linearGradient id="paint15_linear_1642_24593" x1="245.683" y1="209.701" x2="260.268" y2="-0.811847" gradientUnits="userSpaceOnUse">
<stop stop-color="#17B26A"/>
<stop offset="1" stop-color="#75E4B0"/>
</linearGradient>
<linearGradient id="paint16_linear_1642_24593" x1="236.717" y1="210.628" x2="262.039" y2="3.29736" gradientUnits="userSpaceOnUse">
<stop stop-color="#17B26A"/>
<stop offset="1" stop-color="#75E4B0"/>
</linearGradient>
<linearGradient id="paint17_linear_1642_24593" x1="227.894" y1="211.293" x2="263.66" y2="7.68626" gradientUnits="userSpaceOnUse">
<stop stop-color="#17B26A"/>
<stop offset="1" stop-color="#75E4B0"/>
</linearGradient>
<linearGradient id="paint18_linear_1642_24593" x1="219.222" y1="211.708" x2="265.115" y2="12.3442" gradientUnits="userSpaceOnUse">
<stop stop-color="#17B26A"/>
<stop offset="1" stop-color="#75E4B0"/>
</linearGradient>
<linearGradient id="paint19_linear_1642_24593" x1="210.719" y1="211.885" x2="266.391" y2="17.2595" gradientUnits="userSpaceOnUse">
<stop stop-color="#17B26A"/>
<stop offset="1" stop-color="#75E4B0"/>
</linearGradient>
<linearGradient id="paint20_linear_1642_24593" x1="202.392" y1="211.833" x2="267.476" y2="22.4189" gradientUnits="userSpaceOnUse">
<stop stop-color="#17B26A"/>
<stop offset="1" stop-color="#75E4B0"/>
</linearGradient>
<linearGradient id="paint21_linear_1642_24593" x1="194.253" y1="211.567" x2="268.359" y2="27.8095" gradientUnits="userSpaceOnUse">
<stop stop-color="#17B26A"/>
<stop offset="1" stop-color="#75E4B0"/>
</linearGradient>
<linearGradient id="paint22_linear_1642_24593" x1="186.314" y1="211.099" x2="269.029" y2="33.4174" gradientUnits="userSpaceOnUse">
<stop stop-color="#17B26A"/>
<stop offset="1" stop-color="#75E4B0"/>
</linearGradient>
<linearGradient id="paint23_linear_1642_24593" x1="178.581" y1="210.442" x2="269.476" y2="39.2286" gradientUnits="userSpaceOnUse">
<stop stop-color="#17B26A"/>
<stop offset="1" stop-color="#75E4B0"/>
</linearGradient>
<linearGradient id="paint24_linear_1642_24593" x1="171.065" y1="209.609" x2="269.691" y2="45.2282" gradientUnits="userSpaceOnUse">
<stop stop-color="#17B26A"/>
<stop offset="1" stop-color="#75E4B0"/>
</linearGradient>
<linearGradient id="paint25_linear_1642_24593" x1="163.77" y1="208.615" x2="269.665" y2="51.4017" gradientUnits="userSpaceOnUse">
<stop stop-color="#17B26A"/>
<stop offset="1" stop-color="#75E4B0"/>
</linearGradient>
<linearGradient id="paint26_linear_1642_24593" x1="156.706" y1="207.474" x2="269.393" y2="57.7333" gradientUnits="userSpaceOnUse">
<stop stop-color="#17B26A"/>
<stop offset="1" stop-color="#75E4B0"/>
</linearGradient>
<linearGradient id="paint27_linear_1642_24593" x1="149.879" y1="206.2" x2="268.869" y2="64.2074" gradientUnits="userSpaceOnUse">
<stop stop-color="#17B26A"/>
<stop offset="1" stop-color="#75E4B0"/>
</linearGradient>
<linearGradient id="paint28_linear_1642_24593" x1="143.291" y1="204.807" x2="268.087" y2="70.8083" gradientUnits="userSpaceOnUse">
<stop stop-color="#17B26A"/>
<stop offset="1" stop-color="#75E4B0"/>
</linearGradient>
<linearGradient id="paint29_linear_1642_24593" x1="136.945" y1="203.312" x2="267.04" y2="77.5199" gradientUnits="userSpaceOnUse">
<stop stop-color="#17B26A"/>
<stop offset="1" stop-color="#75E4B0"/>
</linearGradient>
<linearGradient id="paint30_linear_1642_24593" x1="130.849" y1="201.729" x2="265.729" y2="84.3269" gradientUnits="userSpaceOnUse">
<stop stop-color="#17B26A"/>
<stop offset="1" stop-color="#75E4B0"/>
</linearGradient>
<linearGradient id="paint31_linear_1642_24593" x1="125.002" y1="200.072" x2="264.151" y2="91.2126" gradientUnits="userSpaceOnUse">
<stop stop-color="#17B26A"/>
<stop offset="1" stop-color="#75E4B0"/>
</linearGradient>
<linearGradient id="paint32_linear_1642_24593" x1="119.403" y1="198.356" x2="262.301" y2="98.161" gradientUnits="userSpaceOnUse">
<stop stop-color="#17B26A"/>
<stop offset="1" stop-color="#75E4B0"/>
</linearGradient>
<linearGradient id="paint33_linear_1642_24593" x1="114.057" y1="196.597" x2="260.183" y2="105.157" gradientUnits="userSpaceOnUse">
<stop stop-color="#17B26A"/>
<stop offset="1" stop-color="#75E4B0"/>
</linearGradient>
<linearGradient id="paint34_linear_1642_24593" x1="108.961" y1="194.809" x2="257.795" y2="112.184" gradientUnits="userSpaceOnUse">
<stop stop-color="#17B26A"/>
<stop offset="1" stop-color="#75E4B0"/>
</linearGradient>
<linearGradient id="paint35_linear_1642_24593" x1="104.114" y1="193.006" x2="255.14" y2="119.226" gradientUnits="userSpaceOnUse">
<stop stop-color="#17B26A"/>
<stop offset="1" stop-color="#75E4B0"/>
</linearGradient>
<linearGradient id="paint36_linear_1642_24593" x1="99.5153" y1="191.204" x2="252.22" y2="126.269" gradientUnits="userSpaceOnUse">
<stop stop-color="#17B26A"/>
<stop offset="1" stop-color="#75E4B0"/>
</linearGradient>
<linearGradient id="paint37_linear_1642_24593" x1="95.1592" y1="189.415" x2="249.037" y2="133.296" gradientUnits="userSpaceOnUse">
<stop stop-color="#17B26A"/>
<stop offset="1" stop-color="#75E4B0"/>
</linearGradient>
<linearGradient id="paint38_linear_1642_24593" x1="91.0437" y1="187.654" x2="245.595" y2="140.294" gradientUnits="userSpaceOnUse">
<stop stop-color="#17B26A"/>
<stop offset="1" stop-color="#75E4B0"/>
</linearGradient>
<linearGradient id="paint39_linear_1642_24593" x1="87.1642" y1="185.933" x2="241.899" y2="147.248" gradientUnits="userSpaceOnUse">
<stop stop-color="#17B26A"/>
<stop offset="1" stop-color="#75E4B0"/>
</linearGradient>
<linearGradient id="paint40_linear_1642_24593" x1="83.5161" y1="184.267" x2="237.957" y2="154.143" gradientUnits="userSpaceOnUse">
<stop stop-color="#17B26A"/>
<stop offset="1" stop-color="#75E4B0"/>
</linearGradient>
<linearGradient id="paint41_linear_1642_24593" x1="80.0908" y1="182.667" x2="233.771" y2="160.968" gradientUnits="userSpaceOnUse">
<stop stop-color="#17B26A"/>
<stop offset="1" stop-color="#75E4B0"/>
</linearGradient>
</defs>
</svg>
